<svg xmlns="http://www.w3.org/2000/svg" viewBox="0 0 574.87 551.18"><path d="M181.69,521.18V353.84H19.12V521.18c0,10.57,13.35,23.91,23.91,23.91H167.34c10.57,0,14.35-13.34,14.35-23.91ZM66.94,502.06a4.78,4.78,0,0,1-9.56,0V377.75a4.78,4.78,0,0,1,9.56,0Zm38.25,0a4.78,4.78,0,0,1-9.56,0V377.75a4.78,4.78,0,0,1,9.56,0Zm38.25,0a4.78,4.78,0,0,1-9.56,0V377.75a4.78,4.78,0,0,1,9.56,0ZM19.12,334.72H181.69V315.6h19.12V296.48H143.44c0-10.57-6.83-19.13-15.25-19.13H77.4c-8.41,0-15.24,8.56-15.24,19.13H0V315.6H19.12v19.13ZM357,191.56C371,329.8,243.89,542.08,243.89,542.08c145.24-78.21,169.2-207.36,169.2-207.36C455.42,401.2,457.57,563,457.57,563c81-194.1,0-377,0-377l117.3,48.88c-19.55-74-141-125.68-141-125.68-110.32,50.27-250,44.68-250,44.68,75.4,72.62,173.17,37.7,173.17,37.7Z" transform="translate(0 -11.84)"/><circle cx="369.78" cy="43.29" r="43.29"/><path d="M94.43,229.53c6-2.39,27.49-13.15,28.76,0s11.88,9.56,19.05,0,3.59-25.1,12-23.91,15.54-10.75,17.92-21.73-22.7-18.91-33.47-21.46-20.32,13.32-27.49,13.32S93.23,155.42,86.06,165s-12,40.64-12,40.64c-10.76-6-21.52,7.17-25.1,16.74s39.44,9.56,45.42,7.17Z" transform="translate(0 -11.84)"/></svg>