
<svg version="1.1" id="Layer_1" xmlns:v="https://vecta.io/nano"
	 xmlns="http://www.w3.org/2000/svg" xmlns:xlink="http://www.w3.org/1999/xlink" x="0px" y="0px" viewBox="0 0 438.5 438.5"
	 style="enable-background:new 0 0 438.5 438.5;" xml:space="preserve">
<path d="M158.2,352.6c-3.1,0.6-4.4,2-4,4.3s2.1,3,5.1,2.3s4.4-2.1,4-4C162.9,353.1,161.2,352.2,158.2,352.6L158.2,352.6z
	 M141.9,354.9c-3,0-4.6,1-4.6,3.1c0,2.5,1.6,3.5,4.9,3.1c3,0,4.6-1,4.6-3.1C146.8,355.6,145.1,354.5,141.9,354.9L141.9,354.9z
	 M119.6,354c-0.8,2.1,0.5,3.5,3.7,4.3c2.9,1.1,4.7,0.6,5.4-1.7c0.6-2.1-0.7-3.6-3.7-4.6C122.2,351.3,120.4,351.9,119.6,354z
	 M414.4,24.1C398.3,8,379,0,356.3,0H82.2c-22.6,0-42,8-58.1,24.1S0,59.6,0,82.2v274.1c0,22.6,8,42,24.1,58.1s35.5,24.1,58.1,24.1h64
	c4.2,0,7.3-0.1,9.4-0.4c2.1-0.3,4.2-1.5,6.3-3.7s3.1-5.4,3.1-9.6l-0.1-19.4l-0.1-29.4l-6.6,1.1c-4.2,0.8-9.5,1.1-15.8,1
	s-13-0.8-19.8-2s-13.2-4.1-19.1-8.6c-5.9-4.5-10.1-10.3-12.6-17.6l-2.9-6.6c-1.9-4.4-4.9-9.2-9-14.6c-4.1-5.3-8.2-9-12.4-10.9
	l-2-1.4c-1.3-1-2.6-2.1-3.7-3.4s-2-2.7-2.6-4c-0.6-1.3-0.1-2.4,1.4-3.3s4.3-1.3,8.3-1.3l5.7,0.9c3.8,0.8,8.5,3,14.1,6.9
	s10.2,8.8,13.8,14.8c4.4,7.8,9.7,13.8,15.8,17.8c6.2,4.1,12.4,6.1,18.7,6.1s11.7-0.5,16.3-1.4c4.6-1,8.8-2.4,12.8-4.3
	c1.7-12.8,6.4-22.6,14-29.4c-10.8-1.1-20.6-2.9-29.3-5.1c-8.7-2.3-17.6-6-26.8-11.1s-16.9-11.5-23-19.1s-11.1-17.6-15-30
	s-5.9-26.7-5.9-42.8c0-23,7.5-42.6,22.6-58.8c-7-17.3-6.4-36.7,2-58.2c5.5-1.7,13.7-0.4,24.6,3.9s18.8,7.9,23.8,11s9.1,5.6,12.1,7.7
	c17.7-4.9,36-7.4,54.8-7.4s37.1,2.5,54.8,7.4l10.9-6.9c7.4-4.6,16.2-8.8,26.3-12.6s17.8-4.9,23.1-3.1c8.6,21.5,9.3,40.9,2.3,58.2
	c15,16.2,22.6,35.8,22.6,58.8c0,16.2-2,30.5-5.9,43c-3.9,12.5-8.9,22.5-15.1,30c-6.2,7.5-13.9,13.8-23.1,19
	c-9.2,5.1-18.2,8.9-26.8,11.1c-8.7,2.3-18.4,4-29.3,5.1c9.9,8.6,14.8,22.1,14.8,40.5v68.2c0,3.2,0.5,5.9,1.4,7.9
	c0.9,1.9,2.5,3.4,4.6,4.1c2.1,0.8,4,1.2,5.6,1.4s4,0.3,7,0.3h64c22.6,0,42-8,58.1-24.1c16.1-16.1,24.1-35.5,24.1-58.1V82.2
	C438.5,59.6,430.5,40.2,414.4,24.1L414.4,24.1z M86.8,319.2c-1.3,0.9-1.1,2.5,0.6,4.6c1.9,1.9,3.4,2.2,4.6,0.9
	c1.3-0.9,1.1-2.5-0.6-4.6C89.5,318.3,87.9,318,86.8,319.2z M77.4,312.1c-0.6,1.3,0.1,2.5,2,3.4c1.5,1,2.8,0.8,3.7-0.6
	c0.6-1.3-0.1-2.5-2-3.4C79.2,310.9,77.9,311.1,77.4,312.1z M95.6,330.3c-1.7,0.9-1.7,2.7,0,5.1c1.7,2.5,3.3,3.1,4.9,2
	c1.7-1.3,1.7-3.1,0-5.4C99,329.6,97.4,329,95.6,330.3L95.6,330.3z M105.6,343.2c-1.7,1.5-1.3,3.3,1.1,5.4c2.3,2.3,4.2,2.6,5.7,0.9
	c1.5-1.5,1.1-3.3-1.1-5.4C109.1,341.8,107.2,341.5,105.6,343.2L105.6,343.2z"/>
</svg>
